<?xml version="1.0" encoding="UTF-8" standalone="no"?>
<!DOCTYPE svg PUBLIC "-//W3C//DTD SVG 1.1//EN"
 "http://www.w3.org/Graphics/SVG/1.1/DTD/svg11.dtd">
<!-- Generated by graphviz version 2.40.1 (20161225.0304)
 -->
<!-- Title: state transitions Pages: 1 -->
<svg width="274pt" height="188pt"
 viewBox="0.00 0.00 274.00 188.00" xmlns="http://www.w3.org/2000/svg" xmlns:xlink="http://www.w3.org/1999/xlink">
<g id="graph0" class="graph" transform="scale(1 1) rotate(0) translate(4 184)">
<title>state transitions</title>
<polygon fill="#ffffff" stroke="transparent" points="-4,4 -4,-184 270,-184 270,4 -4,4"/>
<g id="clust1" class="cluster state regular">
<title>cluster_ALUCtrl</title>
<path fill="none" stroke="#000000" stroke-width="2" d="M20,-8C20,-8 246,-8 246,-8 252,-8 258,-14 258,-20 258,-20 258,-160 258,-160 258,-166 252,-172 246,-172 246,-172 20,-172 20,-172 14,-172 8,-166 8,-160 8,-160 8,-20 8,-20 8,-14 14,-8 20,-8"/>
<text text-anchor="start" x="112.5042" y="-153.2" font-family="Helvetica,sans-Serif" font-size="12.00" fill="#000000">ALUCtrl</text>
</g>
<!-- ALUCtrl -->
<!-- 2&#39;b00 -->
<g id="node2" class="node state regular">
<title>2&#39;b00</title>
<polygon fill="#ffffff" fill-opacity="0.003922" stroke="transparent" stroke-width="2" points="228,-134 172,-134 172,-98 228,-98 228,-134"/>
<text text-anchor="start" x="185.333" y="-112.2" font-family="Helvetica,sans-Serif" font-size="12.00" fill="#000000">2&#39;b00</text>
<path fill="none" stroke="#000000" stroke-width="2" d="M184.3333,-99C184.3333,-99 215.6667,-99 215.6667,-99 221.3333,-99 227,-104.6667 227,-110.3333 227,-110.3333 227,-121.6667 227,-121.6667 227,-127.3333 221.3333,-133 215.6667,-133 215.6667,-133 184.3333,-133 184.3333,-133 178.6667,-133 173,-127.3333 173,-121.6667 173,-121.6667 173,-110.3333 173,-110.3333 173,-104.6667 178.6667,-99 184.3333,-99"/>
</g>
<!-- 4&#39;b0010 -->
<g id="node5" class="node state regular">
<title>4&#39;b0010</title>
<polygon fill="#ffffff" fill-opacity="0.003922" stroke="transparent" stroke-width="2" points="237,-52 173,-52 173,-16 237,-16 237,-52"/>
<text text-anchor="start" x="183.6622" y="-30.2" font-family="Helvetica,sans-Serif" font-size="12.00" fill="#000000">4&#39;b0010</text>
<path fill="none" stroke="#ff0000" stroke-width="2" d="M185.3333,-17C185.3333,-17 224.6667,-17 224.6667,-17 230.3333,-17 236,-22.6667 236,-28.3333 236,-28.3333 236,-39.6667 236,-39.6667 236,-45.3333 230.3333,-51 224.6667,-51 224.6667,-51 185.3333,-51 185.3333,-51 179.6667,-51 174,-45.3333 174,-39.6667 174,-39.6667 174,-28.3333 174,-28.3333 174,-22.6667 179.6667,-17 185.3333,-17"/>
</g>
<!-- 2&#39;b00&#45;&gt;4&#39;b0010 -->
<g id="edge1" class="edge transition">
<title>2&#39;b00&#45;&gt;4&#39;b0010</title>
<path fill="none" stroke="#ff0000" d="M201.1097,-97.8015C201.744,-87.3976 202.5536,-74.1215 203.2697,-62.3768"/>
<polygon fill="#ff0000" stroke="#ff0000" points="206.7782,-62.3421 203.8934,-52.1476 199.7912,-61.916 206.7782,-62.3421"/>
<text text-anchor="middle" x="203.3895" y="-72" font-family="Helvetica,sans-Serif" font-size="10.00" fill="#ff0000"> </text>
</g>
<!-- 2&#39;b01 -->
<g id="node3" class="node state regular">
<title>2&#39;b01</title>
<polygon fill="#ffffff" fill-opacity="0.003922" stroke="transparent" stroke-width="2" points="150,-134 94,-134 94,-98 150,-98 150,-134"/>
<text text-anchor="start" x="107.333" y="-112.2" font-family="Helvetica,sans-Serif" font-size="12.00" fill="#000000">2&#39;b01</text>
<path fill="none" stroke="#000000" stroke-width="2" d="M106.3333,-99C106.3333,-99 137.6667,-99 137.6667,-99 143.3333,-99 149,-104.6667 149,-110.3333 149,-110.3333 149,-121.6667 149,-121.6667 149,-127.3333 143.3333,-133 137.6667,-133 137.6667,-133 106.3333,-133 106.3333,-133 100.6667,-133 95,-127.3333 95,-121.6667 95,-121.6667 95,-110.3333 95,-110.3333 95,-104.6667 100.6667,-99 106.3333,-99"/>
</g>
<!-- 4&#39;b0110 -->
<g id="node6" class="node state regular">
<title>4&#39;b0110</title>
<polygon fill="#ffffff" fill-opacity="0.003922" stroke="transparent" stroke-width="2" points="151,-52 87,-52 87,-16 151,-16 151,-52"/>
<text text-anchor="start" x="97.6622" y="-30.2" font-family="Helvetica,sans-Serif" font-size="12.00" fill="#000000">4&#39;b0110</text>
<path fill="none" stroke="#ff0000" stroke-width="2" d="M99.3333,-17C99.3333,-17 138.6667,-17 138.6667,-17 144.3333,-17 150,-22.6667 150,-28.3333 150,-28.3333 150,-39.6667 150,-39.6667 150,-45.3333 144.3333,-51 138.6667,-51 138.6667,-51 99.3333,-51 99.3333,-51 93.6667,-51 88,-45.3333 88,-39.6667 88,-39.6667 88,-28.3333 88,-28.3333 88,-22.6667 93.6667,-17 99.3333,-17"/>
</g>
<!-- 2&#39;b01&#45;&gt;4&#39;b0110 -->
<g id="edge2" class="edge transition">
<title>2&#39;b01&#45;&gt;4&#39;b0110</title>
<path fill="none" stroke="#ff0000" d="M121.3342,-97.8015C120.9536,-87.3976 120.4679,-74.1215 120.0382,-62.3768"/>
<polygon fill="#ff0000" stroke="#ff0000" points="123.5273,-62.0129 119.6639,-52.1476 116.532,-62.2689 123.5273,-62.0129"/>
<text text-anchor="middle" x="121.3895" y="-72" font-family="Helvetica,sans-Serif" font-size="10.00" fill="#ff0000"> </text>
</g>
<!-- 2&#39;b10 -->
<g id="node4" class="node state regular">
<title>2&#39;b10</title>
<polygon fill="#ffffff" fill-opacity="0.003922" stroke="transparent" stroke-width="2" points="72,-134 16,-134 16,-98 72,-98 72,-134"/>
<text text-anchor="start" x="29.333" y="-112.2" font-family="Helvetica,sans-Serif" font-size="12.00" fill="#000000">2&#39;b10</text>
<path fill="none" stroke="#ff0000" stroke-width="2" d="M28.3333,-99C28.3333,-99 59.6667,-99 59.6667,-99 65.3333,-99 71,-104.6667 71,-110.3333 71,-110.3333 71,-121.6667 71,-121.6667 71,-127.3333 65.3333,-133 59.6667,-133 59.6667,-133 28.3333,-133 28.3333,-133 22.6667,-133 17,-127.3333 17,-121.6667 17,-121.6667 17,-110.3333 17,-110.3333 17,-104.6667 22.6667,-99 28.3333,-99"/>
</g>
</g>
</svg>
