<?xml version="1.0" encoding="UTF-8" standalone="no"?>
<!DOCTYPE svg PUBLIC "-//W3C//DTD SVG 1.1//EN"
 "http://www.w3.org/Graphics/SVG/1.1/DTD/svg11.dtd">
<!-- Generated by graphviz version 2.40.1 (20161225.0304)
 -->
<!-- Title: state transitions Pages: 1 -->
<svg width="430pt" height="188pt"
 viewBox="0.00 0.00 430.00 188.00" xmlns="http://www.w3.org/2000/svg" xmlns:xlink="http://www.w3.org/1999/xlink">
<g id="graph0" class="graph" transform="scale(1 1) rotate(0) translate(4 184)">
<title>state transitions</title>
<polygon fill="#ffffff" stroke="transparent" points="-4,4 -4,-184 426,-184 426,4 -4,4"/>
<g id="clust1" class="cluster state regular">
<title>cluster_Immediate</title>
<path fill="none" stroke="#000000" stroke-width="2" d="M20,-8C20,-8 402,-8 402,-8 408,-8 414,-14 414,-20 414,-20 414,-160 414,-160 414,-166 408,-172 402,-172 402,-172 20,-172 20,-172 14,-172 8,-166 8,-160 8,-160 8,-20 8,-20 8,-14 14,-8 20,-8"/>
<text text-anchor="start" x="182.9974" y="-153.2" font-family="Helvetica,sans-Serif" font-size="12.00" fill="#000000">Immediate</text>
</g>
<!-- Immediate -->
<!-- 8 -->
<g id="node2" class="node state regular">
<title>8</title>
<polygon fill="#ffffff" fill-opacity="0.003922" stroke="transparent" stroke-width="2" points="384,-134 328,-134 328,-98 384,-98 384,-134"/>
<text text-anchor="start" x="352.6646" y="-112.2" font-family="Helvetica,sans-Serif" font-size="12.00" fill="#000000">8</text>
<path fill="none" stroke="#000000" stroke-width="2" d="M340.3333,-99C340.3333,-99 371.6667,-99 371.6667,-99 377.3333,-99 383,-104.6667 383,-110.3333 383,-110.3333 383,-121.6667 383,-121.6667 383,-127.3333 377.3333,-133 371.6667,-133 371.6667,-133 340.3333,-133 340.3333,-133 334.6667,-133 329,-127.3333 329,-121.6667 329,-121.6667 329,-110.3333 329,-110.3333 329,-104.6667 334.6667,-99 340.3333,-99"/>
</g>
<!-- Simm -->
<g id="node7" class="node state regular">
<title>Simm</title>
<polygon fill="#ffffff" fill-opacity="0.003922" stroke="transparent" stroke-width="2" points="384,-52 328,-52 328,-16 384,-16 384,-52"/>
<text text-anchor="start" x="340.6724" y="-30.2" font-family="Helvetica,sans-Serif" font-size="12.00" fill="#000000">Simm</text>
<path fill="none" stroke="#ff0000" stroke-width="2" d="M340.3333,-17C340.3333,-17 371.6667,-17 371.6667,-17 377.3333,-17 383,-22.6667 383,-28.3333 383,-28.3333 383,-39.6667 383,-39.6667 383,-45.3333 377.3333,-51 371.6667,-51 371.6667,-51 340.3333,-51 340.3333,-51 334.6667,-51 329,-45.3333 329,-39.6667 329,-39.6667 329,-28.3333 329,-28.3333 329,-22.6667 334.6667,-17 340.3333,-17"/>
</g>
<!-- 8&#45;&gt;Simm -->
<g id="edge1" class="edge transition">
<title>8&#45;&gt;Simm</title>
<path fill="none" stroke="#ff0000" d="M356,-97.8015C356,-87.3976 356,-74.1215 356,-62.3768"/>
<polygon fill="#ff0000" stroke="#ff0000" points="359.5001,-62.1476 356,-52.1476 352.5001,-62.1476 359.5001,-62.1476"/>
<text text-anchor="middle" x="357.3895" y="-72" font-family="Helvetica,sans-Serif" font-size="10.00" fill="#ff0000"> </text>
</g>
<!-- 24 -->
<g id="node3" class="node state regular">
<title>24</title>
<polygon fill="#ffffff" fill-opacity="0.003922" stroke="transparent" stroke-width="2" points="306,-134 250,-134 250,-98 306,-98 306,-134"/>
<text text-anchor="start" x="271.3292" y="-112.2" font-family="Helvetica,sans-Serif" font-size="12.00" fill="#000000">24</text>
<path fill="none" stroke="#000000" stroke-width="2" d="M262.3333,-99C262.3333,-99 293.6667,-99 293.6667,-99 299.3333,-99 305,-104.6667 305,-110.3333 305,-110.3333 305,-121.6667 305,-121.6667 305,-127.3333 299.3333,-133 293.6667,-133 293.6667,-133 262.3333,-133 262.3333,-133 256.6667,-133 251,-127.3333 251,-121.6667 251,-121.6667 251,-110.3333 251,-110.3333 251,-104.6667 256.6667,-99 262.3333,-99"/>
</g>
<!-- Bimm -->
<g id="node8" class="node state regular">
<title>Bimm</title>
<polygon fill="#ffffff" fill-opacity="0.003922" stroke="transparent" stroke-width="2" points="306,-52 250,-52 250,-16 306,-16 306,-52"/>
<text text-anchor="start" x="262.6724" y="-30.2" font-family="Helvetica,sans-Serif" font-size="12.00" fill="#000000">Bimm</text>
<path fill="none" stroke="#ff0000" stroke-width="2" d="M262.3333,-17C262.3333,-17 293.6667,-17 293.6667,-17 299.3333,-17 305,-22.6667 305,-28.3333 305,-28.3333 305,-39.6667 305,-39.6667 305,-45.3333 299.3333,-51 293.6667,-51 293.6667,-51 262.3333,-51 262.3333,-51 256.6667,-51 251,-45.3333 251,-39.6667 251,-39.6667 251,-28.3333 251,-28.3333 251,-22.6667 256.6667,-17 262.3333,-17"/>
</g>
<!-- 24&#45;&gt;Bimm -->
<g id="edge2" class="edge transition">
<title>24&#45;&gt;Bimm</title>
<path fill="none" stroke="#ff0000" d="M278,-97.8015C278,-87.3976 278,-74.1215 278,-62.3768"/>
<polygon fill="#ff0000" stroke="#ff0000" points="281.5001,-62.1476 278,-52.1476 274.5001,-62.1476 281.5001,-62.1476"/>
<text text-anchor="middle" x="279.3895" y="-72" font-family="Helvetica,sans-Serif" font-size="10.00" fill="#ff0000"> </text>
</g>
<!-- 5 -->
<g id="node4" class="node state regular">
<title>5</title>
<polygon fill="#ffffff" fill-opacity="0.003922" stroke="transparent" stroke-width="2" points="228,-134 172,-134 172,-98 228,-98 228,-134"/>
<text text-anchor="start" x="196.6646" y="-112.2" font-family="Helvetica,sans-Serif" font-size="12.00" fill="#000000">5</text>
<path fill="none" stroke="#000000" stroke-width="2" d="M184.3333,-99C184.3333,-99 215.6667,-99 215.6667,-99 221.3333,-99 227,-104.6667 227,-110.3333 227,-110.3333 227,-121.6667 227,-121.6667 227,-127.3333 221.3333,-133 215.6667,-133 215.6667,-133 184.3333,-133 184.3333,-133 178.6667,-133 173,-127.3333 173,-121.6667 173,-121.6667 173,-110.3333 173,-110.3333 173,-104.6667 178.6667,-99 184.3333,-99"/>
</g>
<!-- Uimm -->
<g id="node9" class="node state regular">
<title>Uimm</title>
<polygon fill="#ffffff" fill-opacity="0.003922" stroke="transparent" stroke-width="2" points="228,-52 172,-52 172,-16 228,-16 228,-52"/>
<text text-anchor="start" x="184.3424" y="-30.2" font-family="Helvetica,sans-Serif" font-size="12.00" fill="#000000">Uimm</text>
<path fill="none" stroke="#ff0000" stroke-width="2" d="M184.3333,-17C184.3333,-17 215.6667,-17 215.6667,-17 221.3333,-17 227,-22.6667 227,-28.3333 227,-28.3333 227,-39.6667 227,-39.6667 227,-45.3333 221.3333,-51 215.6667,-51 215.6667,-51 184.3333,-51 184.3333,-51 178.6667,-51 173,-45.3333 173,-39.6667 173,-39.6667 173,-28.3333 173,-28.3333 173,-22.6667 178.6667,-17 184.3333,-17"/>
</g>
<!-- 5&#45;&gt;Uimm -->
<g id="edge3" class="edge transition">
<title>5&#45;&gt;Uimm</title>
<path fill="none" stroke="#ff0000" d="M200,-97.8015C200,-87.3976 200,-74.1215 200,-62.3768"/>
<polygon fill="#ff0000" stroke="#ff0000" points="203.5001,-62.1476 200,-52.1476 196.5001,-62.1476 203.5001,-62.1476"/>
<text text-anchor="middle" x="201.3895" y="-72" font-family="Helvetica,sans-Serif" font-size="10.00" fill="#ff0000"> </text>
</g>
<!-- 27 -->
<g id="node5" class="node state regular">
<title>27</title>
<polygon fill="#ffffff" fill-opacity="0.003922" stroke="transparent" stroke-width="2" points="150,-134 94,-134 94,-98 150,-98 150,-134"/>
<text text-anchor="start" x="115.3292" y="-112.2" font-family="Helvetica,sans-Serif" font-size="12.00" fill="#000000">27</text>
<path fill="none" stroke="#000000" stroke-width="2" d="M106.3333,-99C106.3333,-99 137.6667,-99 137.6667,-99 143.3333,-99 149,-104.6667 149,-110.3333 149,-110.3333 149,-121.6667 149,-121.6667 149,-127.3333 143.3333,-133 137.6667,-133 137.6667,-133 106.3333,-133 106.3333,-133 100.6667,-133 95,-127.3333 95,-121.6667 95,-121.6667 95,-110.3333 95,-110.3333 95,-104.6667 100.6667,-99 106.3333,-99"/>
</g>
<!-- Jimm -->
<g id="node10" class="node state regular">
<title>Jimm</title>
<polygon fill="#ffffff" fill-opacity="0.003922" stroke="transparent" stroke-width="2" points="150,-52 94,-52 94,-16 150,-16 150,-52"/>
<text text-anchor="start" x="107.6738" y="-30.2" font-family="Helvetica,sans-Serif" font-size="12.00" fill="#000000">Jimm</text>
<path fill="none" stroke="#ff0000" stroke-width="2" d="M106.3333,-17C106.3333,-17 137.6667,-17 137.6667,-17 143.3333,-17 149,-22.6667 149,-28.3333 149,-28.3333 149,-39.6667 149,-39.6667 149,-45.3333 143.3333,-51 137.6667,-51 137.6667,-51 106.3333,-51 106.3333,-51 100.6667,-51 95,-45.3333 95,-39.6667 95,-39.6667 95,-28.3333 95,-28.3333 95,-22.6667 100.6667,-17 106.3333,-17"/>
</g>
<!-- 27&#45;&gt;Jimm -->
<g id="edge4" class="edge transition">
<title>27&#45;&gt;Jimm</title>
<path fill="none" stroke="#ff0000" d="M122,-97.8015C122,-87.3976 122,-74.1215 122,-62.3768"/>
<polygon fill="#ff0000" stroke="#ff0000" points="125.5001,-62.1476 122,-52.1476 118.5001,-62.1476 125.5001,-62.1476"/>
<text text-anchor="middle" x="123.3895" y="-72" font-family="Helvetica,sans-Serif" font-size="10.00" fill="#ff0000"> </text>
</g>
<!-- 0 -->
<g id="node6" class="node state regular">
<title>0</title>
<polygon fill="#ffffff" fill-opacity="0.003922" stroke="transparent" stroke-width="2" points="72,-134 16,-134 16,-98 72,-98 72,-134"/>
<text text-anchor="start" x="40.6646" y="-112.2" font-family="Helvetica,sans-Serif" font-size="12.00" fill="#000000">0</text>
<path fill="none" stroke="#000000" stroke-width="2" d="M28.3333,-99C28.3333,-99 59.6667,-99 59.6667,-99 65.3333,-99 71,-104.6667 71,-110.3333 71,-110.3333 71,-121.6667 71,-121.6667 71,-127.3333 65.3333,-133 59.6667,-133 59.6667,-133 28.3333,-133 28.3333,-133 22.6667,-133 17,-127.3333 17,-121.6667 17,-121.6667 17,-110.3333 17,-110.3333 17,-104.6667 22.6667,-99 28.3333,-99"/>
</g>
<!-- Iimm -->
<g id="node11" class="node state regular">
<title>Iimm</title>
<polygon fill="#ffffff" fill-opacity="0.003922" stroke="transparent" stroke-width="2" points="72,-52 16,-52 16,-16 72,-16 72,-52"/>
<text text-anchor="start" x="31.0064" y="-30.2" font-family="Helvetica,sans-Serif" font-size="12.00" fill="#000000">Iimm</text>
<path fill="none" stroke="#ff0000" stroke-width="2" d="M28.3333,-17C28.3333,-17 59.6667,-17 59.6667,-17 65.3333,-17 71,-22.6667 71,-28.3333 71,-28.3333 71,-39.6667 71,-39.6667 71,-45.3333 65.3333,-51 59.6667,-51 59.6667,-51 28.3333,-51 28.3333,-51 22.6667,-51 17,-45.3333 17,-39.6667 17,-39.6667 17,-28.3333 17,-28.3333 17,-22.6667 22.6667,-17 28.3333,-17"/>
</g>
<!-- 0&#45;&gt;Iimm -->
<g id="edge5" class="edge transition">
<title>0&#45;&gt;Iimm</title>
<path fill="none" stroke="#ff0000" d="M44,-97.8015C44,-87.3976 44,-74.1215 44,-62.3768"/>
<polygon fill="#ff0000" stroke="#ff0000" points="47.5001,-62.1476 44,-52.1476 40.5001,-62.1476 47.5001,-62.1476"/>
<text text-anchor="middle" x="45.3895" y="-72" font-family="Helvetica,sans-Serif" font-size="10.00" fill="#ff0000"> </text>
</g>
</g>
</svg>
